<?xml version="1.0" encoding="utf-8"?>
<svg version="1.1" x="0px" y="0px" viewBox="0 4.174 100.012 100.684" style="enable-background:new 0 0 100 100;" xmlns="http://www.w3.org/2000/svg">
  <path d="M 11.588 92.787 C 12.766 93.965 14.415 94.672 16.064 94.672 C 17.714 94.672 19.245 94.083 20.541 92.787 L 49.992 63.336 L 79.443 92.787 C 80.621 93.965 82.27 94.672 83.919 94.672 C 85.568 94.672 87.1 94.083 88.396 92.787 C 90.87 90.313 90.87 86.308 88.396 83.952 L 58.945 54.501 L 88.396 25.05 C 90.87 22.576 90.87 18.571 88.396 16.215 C 85.922 13.741 82.034 13.741 79.561 16.215 L 50.11 45.666 L 20.659 16.215 C 18.185 13.741 14.297 13.741 11.824 16.215 C 9.35 18.689 9.35 22.694 11.824 25.05 L 41.274 54.501 L 11.824 83.952 C 9.114 86.425 9.114 90.313 11.588 92.787 Z" style=""/>
</svg>