
<svg viewBox="0 0 500 500" xmlns="http://www.w3.org/2000/svg">
  <path fill-rule="evenodd" clip-rule="evenodd" d="M 249.999 34.918 C 128.16 34.918 29.477 133.601 29.477 255.44 C 29.477 353.021 92.602 435.442 180.258 464.661 C 191.285 466.592 195.42 459.975 195.42 454.187 C 195.42 448.949 195.145 431.583 195.145 413.115 C 139.739 423.312 125.404 399.608 120.994 387.203 C 118.513 380.863 107.762 361.292 98.39 356.054 C 90.672 351.919 79.646 341.719 98.114 341.444 C 115.481 341.169 127.886 357.431 132.019 364.048 C 151.866 397.402 183.567 388.03 196.247 382.24 C 198.177 367.907 203.965 358.259 210.305 352.746 C 161.239 347.233 109.967 328.213 109.967 243.863 C 109.967 219.881 118.513 200.034 132.571 184.599 C 130.366 179.084 122.648 156.481 134.777 126.159 C 134.777 126.159 153.246 120.37 195.42 148.762 C 213.062 143.801 231.807 141.32 250.551 141.32 C 269.295 141.32 288.04 143.801 305.682 148.762 C 347.856 120.095 366.325 126.159 366.325 126.159 C 378.453 156.481 370.735 179.084 368.53 184.599 C 382.588 200.034 391.135 219.606 391.135 243.863 C 391.135 328.489 339.586 347.233 290.521 352.746 C 298.514 359.638 305.406 372.869 305.406 393.543 C 305.406 423.038 305.13 446.745 305.13 454.187 C 305.13 459.975 309.265 466.866 320.291 464.661 C 407.397 435.442 470.522 352.746 470.522 255.44 C 470.522 133.601 371.837 34.918 249.999 34.918 Z" fill="#1B1F23" style=""/>
</svg>